<svg width="256" height="256" viewBox="0 0 256 256" fill="none" xmlns="http://www.w3.org/2000/svg">
<rect width="256" height="256" rx="40" fill="#8C0327"/>
<rect width="254" height="254" transform="translate(1)" fill="#8C0327"/>
<path d="M32.75 55.5625C32.75 42.4112 43.4112 31.75 56.5625 31.75H199.437C212.588 31.75 223.25 42.4112 223.25 55.5625V127.231C218.348 124.093 213.021 121.558 207.375 119.735V55.5625C207.375 51.1788 203.821 47.625 199.437 47.625H56.5625C52.1788 47.625 48.625 51.1788 48.625 55.5625V198.437C48.625 202.821 52.1788 206.375 56.5625 206.375H120.735C122.558 212.021 125.093 217.348 128.231 222.25H56.5625C43.4112 222.25 32.75 211.588 32.75 198.437V55.5625Z" fill="white"/>
<path d="M115.092 81.6998C118.191 84.7996 118.191 89.8254 115.092 92.9251L93.9252 114.091C90.8255 117.191 85.7996 117.191 82.6999 114.091L72.1166 103.508C69.0168 100.409 69.0168 95.3829 72.1166 92.2832C75.2163 89.1834 80.2421 89.1834 83.3419 92.2832L88.3126 97.2538L103.867 81.6998C106.967 78.6001 111.992 78.6001 115.092 81.6998Z" fill="white"/>
<path d="M115.092 139.909C118.191 143.009 118.191 148.034 115.092 151.134L93.9252 172.3C90.8255 175.4 85.7996 175.4 82.6999 172.3L72.1166 161.717C69.0168 158.617 69.0168 153.592 72.1166 150.492C75.2163 147.392 80.2421 147.392 83.3419 150.492L88.3126 155.462L103.867 139.909C106.967 136.809 111.992 136.809 115.092 139.909Z" fill="white"/>
<path d="M186.208 127C218.356 127 244.417 153.06 244.417 185.208C244.417 217.356 218.356 243.417 186.208 243.417C154.06 243.417 128 217.356 128 185.208C128 153.06 154.06 127 186.208 127ZM191.512 216.995L191.506 190.5H217.99C220.913 190.5 223.282 188.131 223.282 185.208C223.282 182.286 220.913 179.917 217.99 179.917H191.505L191.5 153.451C191.5 150.528 189.13 148.159 186.208 148.159C183.286 148.159 180.917 150.528 180.917 153.451L180.922 179.917H154.417C151.495 179.917 149.125 182.286 149.125 185.208C149.125 188.131 151.495 190.5 154.417 190.5H180.923L180.928 216.995C180.928 219.918 183.298 222.287 186.22 222.287C189.143 222.287 191.512 219.918 191.512 216.995Z" fill="white"/>
<path d="M141.229 89.958C136.846 89.958 133.292 93.5118 133.292 97.8955C133.292 102.279 136.846 105.833 141.229 105.833H178.271C182.655 105.833 186.208 102.279 186.208 97.8955C186.208 93.5118 182.655 89.958 178.271 89.958H141.229Z" fill="white"/>
</svg>
